<svg width="38" height="38" viewBox="0 0 38 38" fill="none" xmlns="http://www.w3.org/2000/svg">
<path fill-rule="evenodd" clip-rule="evenodd" d="M8 19C8 17.3431 9.34315 16 11 16C12.6569 16 14 17.3431 14 19C14 20.6569 12.6569 22 11 22C9.34315 22 8 20.6569 8 19ZM11 18C10.4477 18 10 18.4477 10 19C10 19.5523 10.4477 20 11 20C11.5523 20 12 19.5523 12 19C12 18.4477 11.5523 18 11 18ZM8 35C8 33.3431 9.34315 32 11 32C12.6569 32 14 33.3431 14 35C14 36.6569 12.6569 38 11 38C9.34315 38 8 36.6569 8 35ZM11 34C10.4477 34 10 34.4477 10 35C10 35.5523 10.4477 36 11 36C11.5523 36 12 35.5523 12 35C12 34.4477 11.5523 34 11 34ZM16 35C16 33.3431 17.3431 32 19 32C20.6569 32 22 33.3431 22 35C22 36.6569 20.6569 38 19 38C17.3431 38 16 36.6569 16 35ZM19 34C18.4477 34 18 34.4477 18 35C18 35.5523 18.4477 36 19 36C19.5523 36 20 35.5523 20 35C20 34.4477 19.5523 34 19 34ZM0 3C0 1.34315 1.34315 0 3 0C4.65685 0 6 1.34315 6 3C6 4.65685 4.65685 6 3 6C1.34315 6 0 4.65685 0 3ZM3 2C2.44772 2 2 2.44772 2 3C2 3.55228 2.44772 4 3 4C3.55228 4 4 3.55228 4 3C4 2.44772 3.55228 2 3 2ZM0 19C0 17.3431 1.34315 16 3 16C4.65685 16 6 17.3431 6 19C6 20.6569 4.65685 22 3 22C1.34315 22 0 20.6569 0 19ZM3 18C2.44772 18 2 18.4477 2 19C2 19.5523 2.44772 20 3 20C3.55228 20 4 19.5523 4 19C4 18.4477 3.55228 18 3 18ZM32 3C32 1.34315 33.3431 0 35 0C36.6569 0 38 1.34315 38 3C38 4.65685 36.6569 6 35 6C33.3431 6 32 4.65685 32 3ZM35 2C34.4477 2 34 2.44772 34 3C34 3.55228 34.4477 4 35 4C35.5523 4 36 3.55228 36 3C36 2.44772 35.5523 2 35 2ZM0 35C0 33.3431 1.34315 32 3 32C4.65685 32 6 33.3431 6 35C6 36.6569 4.65685 38 3 38C1.34315 38 0 36.6569 0 35ZM3 34C2.44772 34 2 34.4477 2 35C2 35.5523 2.44772 36 3 36C3.55228 36 4 35.5523 4 35C4 34.4477 3.55228 34 3 34ZM16 27C16 25.3431 17.3431 24 19 24C20.6569 24 22 25.3431 22 27C22 28.6569 20.6569 30 19 30C17.3431 30 16 28.6569 16 27ZM19 26C18.4477 26 18 26.4477 18 27C18 27.5523 18.4477 28 19 28C19.5523 28 20 27.5523 20 27C20 26.4477 19.5523 26 19 26ZM0 27C0 25.3431 1.34315 24 3 24C4.65685 24 6 25.3431 6 27C6 28.6569 4.65685 30 3 30C1.34315 30 0 28.6569 0 27ZM3 26C2.44772 26 2 26.4477 2 27C2 27.5523 2.44772 28 3 28C3.55228 28 4 27.5523 4 27C4 26.4477 3.55228 26 3 26ZM0 11C0 9.34315 1.34315 8 3 8C4.65685 8 6 9.34315 6 11C6 12.6569 4.65685 14 3 14C1.34315 14 0 12.6569 0 11ZM3 10C2.44772 10 2 10.4477 2 11C2 11.5523 2.44772 12 3 12C3.55228 12 4 11.5523 4 11C4 10.4477 3.55228 10 3 10ZM8 3C8 1.34315 9.34315 0 11 0C12.6569 0 14 1.34315 14 3C14 4.65685 12.6569 6 11 6C9.34315 6 8 4.65685 8 3ZM11 2C10.4477 2 10 2.44772 10 3C10 3.55228 10.4477 4 11 4C11.5523 4 12 3.55228 12 3C12 2.44772 11.5523 2 11 2ZM32 27C32 25.3431 33.3431 24 35 24C36.6569 24 38 25.3431 38 27C38 28.6569 36.6569 30 35 30C33.3431 30 32 28.6569 32 27ZM35 26C34.4477 26 34 26.4477 34 27C34 27.5523 34.4477 28 35 28C35.5523 28 36 27.5523 36 27C36 26.4477 35.5523 26 35 26ZM32 35C32 33.3431 33.3431 32 35 32C36.6569 32 38 33.3431 38 35C38 36.6569 36.6569 38 35 38C33.3431 38 32 36.6569 32 35ZM35 34C34.4477 34 34 34.4477 34 35C34 35.5523 34.4477 36 35 36C35.5523 36 36 35.5523 36 35C36 34.4477 35.5523 34 35 34ZM32 11C32 9.34315 33.3431 8 35 8C36.6569 8 38 9.34315 38 11C38 12.6569 36.6569 14 35 14C33.3431 14 32 12.6569 32 11ZM35 10C34.4477 10 34 10.4477 34 11C34 11.5523 34.4477 12 35 12C35.5523 12 36 11.5523 36 11C36 10.4477 35.5523 10 35 10ZM16 19C16 17.3431 17.3431 16 19 16C20.6569 16 22 17.3431 22 19C22 20.6569 20.6569 22 19 22C17.3431 22 16 20.6569 16 19ZM19 18C18.4477 18 18 18.4477 18 19C18 19.5523 18.4477 20 19 20C19.5523 20 20 19.5523 20 19C20 18.4477 19.5523 18 19 18ZM32 19C32 17.3431 33.3431 16 35 16C36.6569 16 38 17.3431 38 19C38 20.6569 36.6569 22 35 22C33.3431 22 32 20.6569 32 19ZM35 18C34.4477 18 34 18.4477 34 19C34 19.5523 34.4477 20 35 20C35.5523 20 36 19.5523 36 19C36 18.4477 35.5523 18 35 18ZM24 3C24 1.34315 25.3431 0 27 0C28.6569 0 30 1.34315 30 3C30 4.65685 28.6569 6 27 6C25.3431 6 24 4.65685 24 3ZM27 2C26.4477 2 26 2.44772 26 3C26 3.55228 26.4477 4 27 4C27.5523 4 28 3.55228 28 3C28 2.44772 27.5523 2 27 2ZM16 3C16 1.34315 17.3431 0 19 0C20.6569 0 22 1.34315 22 3C22 4.65685 20.6569 6 19 6C17.3431 6 16 4.65685 16 3ZM19 2C18.4477 2 18 2.44772 18 3C18 3.55228 18.4477 4 19 4C19.5523 4 20 3.55228 20 3C20 2.44772 19.5523 2 19 2ZM16 11C16 9.34315 17.3431 8 19 8C20.6569 8 22 9.34315 22 11C22 12.6569 20.6569 14 19 14C17.3431 14 16 12.6569 16 11ZM19 10C18.4477 10 18 10.4477 18 11C18 11.5523 18.4477 12 19 12C19.5523 12 20 11.5523 20 11C20 10.4477 19.5523 10 19 10ZM24 35C24 33.3431 25.3431 32 27 32C28.6569 32 30 33.3431 30 35C30 36.6569 28.6569 38 27 38C25.3431 38 24 36.6569 24 35ZM27 34C26.4477 34 26 34.4477 26 35C26 35.5523 26.4477 36 27 36C27.5523 36 28 35.5523 28 35C28 34.4477 27.5523 34 27 34ZM24 19C24 17.3431 25.3431 16 27 16C28.6569 16 30 17.3431 30 19C30 20.6569 28.6569 22 27 22C25.3431 22 24 20.6569 24 19ZM27 18C26.4477 18 26 18.4477 26 19C26 19.5523 26.4477 20 27 20C27.5523 20 28 19.5523 28 19C28 18.4477 27.5523 18 27 18Z" fill="#B7A37D"/>
</svg>
