<svg width="52" height="35" viewBox="0 0 52 35" fill="none" xmlns="http://www.w3.org/2000/svg">
<path fill-rule="evenodd" clip-rule="evenodd" d="M15.463 2.4947C15.5407 2.47155 15.6162 2.44651 15.6879 2.42063C15.95 2.32609 16.1763 2.21314 16.3719 2.0849C17.0263 1.65573 16.921 1.58649 16.4448 1.0865C14.6573 -0.790946 11.267 -0.239641 10.466 2.77455C10.3845 3.08054 10.3301 3.41192 10.3066 3.76856C9.86324 10.479 13.876 15.9788 19.7748 17.0057C19.6762 16.3525 19.5334 15.648 19.3575 14.9113C14.4007 15.2854 11.6027 9.86551 11.2667 6.51103C10.5471 -0.672988 14.5647 -0.347231 15.1367 2.14254C15.2107 2.46469 15.1012 2.60317 15.463 2.4947Z" fill="#B7A37D"/>
<path fill-rule="evenodd" clip-rule="evenodd" d="M10.9943 30.7798C11.0134 31.1259 10.9012 31.6677 10.7429 31.9862C10.5004 32.4744 10.1375 32.3876 9.49045 32.2713C6.91571 31.8081 -0.732444 29.317 0.0568422 25.9557C0.389848 24.5383 1.10805 23.9758 2.4084 23.5555C3.49709 23.2041 4.63304 23.0795 5.76456 22.9325C8.86081 22.5575 11.9384 22.4038 15.0036 22.3957C16.4117 22.3919 18.6106 22.2013 20.0707 21.9395C20.0354 22.8098 19.9331 23.6661 19.7272 24.4825C16.4736 24.0094 5.37453 24.0395 1.67416 25.2104C0.436329 25.6024 0.0832455 25.9862 1.27306 26.9345C2.378 27.8147 4.41039 28.6638 5.0699 28.8947C6.4897 29.3917 8.0207 29.757 9.45592 29.9637C10.1622 30.0655 10.9485 29.942 10.9943 30.7798Z" fill="#B7A37D"/>
<path fill-rule="evenodd" clip-rule="evenodd" d="M12.7019 33.3546C16.415 34.2135 21.0637 34.6432 25.7129 34.6432C30.3618 34.6432 35.0108 34.2135 38.7239 33.3546C39.4143 33.1049 39.8579 33.2088 39.9355 32.4556C39.9925 31.9002 39.9432 31.2312 39.6294 30.6895C39.2599 30.0505 38.7606 30.3069 38.0634 30.2022C36.8175 30.0151 35.5314 29.4875 34.4527 28.6971C30.9468 26.1281 31.152 21.6643 31.5561 17.7464C31.9489 13.9366 34.2061 7.82292 35.8415 4.12853C36.1377 3.45918 35.9831 3.28257 35.6392 3.10302C35.3326 2.94249 34.9739 2.75033 34.6515 2.63975C34.0719 2.44114 33.5913 2.50203 33.0889 3.03875C30.9939 5.2792 28.8305 6.92165 25.7129 6.83176C22.5953 6.92165 20.4318 5.2792 18.3367 3.03875C17.8345 2.50203 17.3538 2.44114 16.7744 2.63975C16.4518 2.75033 16.0931 2.94249 15.7863 3.10302C15.4427 3.28257 15.288 3.45918 15.5842 4.12853C17.2196 7.82292 19.4769 13.9366 19.8697 17.7464C20.2738 21.6643 20.4791 26.1281 16.973 28.6971C15.8943 29.4875 14.6082 30.0151 13.3623 30.2022C12.665 30.3069 12.1658 30.0505 11.7963 30.6895C11.4826 31.2312 11.4332 31.9002 11.4903 32.4556C11.5678 33.2088 12.0115 33.1049 12.7019 33.3546Z" fill="#D7C39C"/>
<path fill-rule="evenodd" clip-rule="evenodd" d="M35.9627 2.4947C35.885 2.47155 35.8096 2.44651 35.7378 2.42063C35.4757 2.32609 35.2495 2.21314 35.0537 2.0849C34.3993 1.65573 34.5047 1.58649 34.9808 1.0865C36.7684 -0.790946 40.1586 -0.239641 40.9597 2.77455C41.0411 3.08054 41.0955 3.41192 41.1191 3.76856C41.5625 10.479 37.5496 15.9788 31.651 17.0057C31.7495 16.3525 31.8922 15.648 32.0683 14.9113C37.0252 15.2854 39.8229 9.86551 40.159 6.51103C40.8787 -0.672988 36.8609 -0.347231 36.2889 2.14254C36.215 2.46469 36.3243 2.60317 35.9627 2.4947Z" fill="#B7A37D"/>
<path fill-rule="evenodd" clip-rule="evenodd" d="M40.4312 30.7798C40.4122 31.1259 40.5244 31.6677 40.6829 31.9862C40.9254 32.4744 41.2881 32.3876 41.9352 32.2713C44.5099 31.8081 52.1581 29.317 51.3688 25.9557C51.0359 24.5383 50.3179 23.9758 49.0171 23.5555C47.9287 23.2041 46.7926 23.0795 45.6611 22.9325C42.5648 22.5575 39.4873 22.4038 36.4222 22.3957C35.014 22.3919 32.8152 22.2013 31.3551 21.9395C31.3902 22.8098 31.4924 23.6661 31.6984 24.4825C34.9522 24.0094 46.0513 24.0395 49.7515 25.2104C50.9895 25.6024 51.3425 25.9862 50.1529 26.9345C49.0476 27.8147 47.0153 28.6638 46.3558 28.8947C44.9361 29.3917 43.4048 29.757 41.9697 29.9637C41.2635 30.0655 40.4772 29.942 40.4312 30.7798Z" fill="#B7A37D"/>
</svg>
