<svg width="39" height="40" viewBox="0 0 39 40" fill="none" xmlns="http://www.w3.org/2000/svg">
<path fill-rule="evenodd" clip-rule="evenodd" d="M16.3858 30.6558C18.6005 30.7724 20.4528 29.9479 21.9393 28.4002C23.0153 30.4761 25.1691 31.5344 27.8417 31.5344C34.0317 31.5344 38.6667 25.8797 38.6667 17.3515C38.6667 7.15053 31.5578 0 21.3772 0C9.95411 0 0 9.15814 0 21.7026C0 32.9109 7.78947 40 17.8123 40C23.2871 40 27.3398 38.84 32.34 35.4772C33.1835 34.91 33.4069 33.7671 32.8389 32.9246C32.2709 32.0821 31.1267 31.859 30.2832 32.4263C25.9102 35.3672 22.5751 36.3218 17.8123 36.3218C9.75078 36.3218 3.68254 30.7992 3.68254 21.7026C3.68254 11.2601 11.9234 3.67816 21.3772 3.67816C29.5182 3.67816 34.9841 9.17615 34.9841 17.3515C34.9841 23.9925 31.8171 27.8562 27.8417 27.8562C25.9891 27.8562 25.0353 27.1842 24.8935 25.4745L27.0701 14.8305L27.8673 11.7045C28.1183 10.7203 27.5229 9.71912 26.5375 9.46842C25.6043 9.23101 24.656 9.75169 24.3448 10.6434C23.2919 9.3835 21.8132 8.5751 19.9529 8.45907C15.1783 8.16127 10.8732 12.4455 9.72138 18.2672C8.38329 25.0302 10.4821 30.345 16.3858 30.6558ZM19.7245 12.08C21.8662 12.2135 23.0837 14.8891 22.3775 18.4308C21.2741 23.9641 19.3769 27.1802 16.5787 27.0328C13.5162 26.8716 12.3315 23.8716 13.3018 18.9675C14.1322 14.7704 17.0061 11.9104 19.7245 12.08Z" fill="#D1D1D6"/>
</svg>
