<svg width="40" height="40" viewBox="0 0 40 40" fill="none" xmlns="http://www.w3.org/2000/svg">
<path d="M13.75 2C13.75 1.0335 12.9665 0.25 12 0.25V2.25C11.8619 2.25 11.75 2.13807 11.75 2H13.75ZM13.75 8V2H11.75V8H13.75ZM8 13.75C11.1756 13.75 13.75 11.1756 13.75 8H11.75C11.75 10.0711 10.0711 11.75 8 11.75V13.75ZM2 13.75H8V11.75H2V13.75ZM0.25 12C0.25 12.9665 1.0335 13.75 2 13.75V11.75C2.13807 11.75 2.25 11.8619 2.25 12H0.25ZM2 10.25C1.0335 10.25 0.25 11.0335 0.25 12H2.25C2.25 12.1381 2.13807 12.25 2 12.25V10.25ZM8 10.25H2V12.25H8V10.25ZM10.25 8C10.25 9.24264 9.24264 10.25 8 10.25V12.25C10.3472 12.25 12.25 10.3472 12.25 8H10.25ZM10.25 2V8H12.25V2H10.25ZM12 0.25C11.0335 0.25 10.25 1.0335 10.25 2H12.25C12.25 2.13807 12.1381 2.25 12 2.25V0.25ZM29.75 2C29.75 1.0335 28.9665 0.25 28 0.25V2.25C27.8619 2.25 27.75 2.13807 27.75 2H29.75ZM29.75 8V2H27.75V8H29.75ZM32 10.25C30.7574 10.25 29.75 9.24264 29.75 8H27.75C27.75 10.3472 29.6528 12.25 32 12.25V10.25ZM38 10.25H32V12.25H38V10.25ZM39.75 12C39.75 11.0335 38.9665 10.25 38 10.25V12.25C37.8619 12.25 37.75 12.1381 37.75 12H39.75ZM38 13.75C38.9665 13.75 39.75 12.9665 39.75 12H37.75C37.75 11.8619 37.8619 11.75 38 11.75V13.75ZM32 13.75H38V11.75H32V13.75ZM26.25 8C26.25 11.1756 28.8244 13.75 32 13.75V11.75C29.9289 11.75 28.25 10.0711 28.25 8H26.25ZM26.25 2V8H28.25V2H26.25ZM28 0.25C27.0335 0.25 26.25 1.0335 26.25 2H28.25C28.25 2.13807 28.1381 2.25 28 2.25V0.25ZM29.75 32C29.75 30.7574 30.7574 29.75 32 29.75V27.75C29.6528 27.75 27.75 29.6528 27.75 32H29.75ZM29.75 38V32H27.75V38H29.75ZM28 39.75C28.9665 39.75 29.75 38.9665 29.75 38H27.75C27.75 37.8619 27.8619 37.75 28 37.75V39.75ZM26.25 38C26.25 38.9665 27.0335 39.75 28 39.75V37.75C28.1381 37.75 28.25 37.8619 28.25 38H26.25ZM26.25 32V38H28.25V32H26.25ZM32 26.25C28.8244 26.25 26.25 28.8244 26.25 32H28.25C28.25 29.9289 29.9289 28.25 32 28.25V26.25ZM38 26.25H32V28.25H38V26.25ZM39.75 28C39.75 27.0335 38.9665 26.25 38 26.25V28.25C37.8619 28.25 37.75 28.1381 37.75 28H39.75ZM38 29.75C38.9665 29.75 39.75 28.9665 39.75 28H37.75C37.75 27.8619 37.8619 27.75 38 27.75V29.75ZM32 29.75H38V27.75H32V29.75ZM2 26.25C1.0335 26.25 0.25 27.0335 0.25 28H2.25C2.25 28.1381 2.13807 28.25 2 28.25V26.25ZM8 26.25H2V28.25H8V26.25ZM13.75 32C13.75 28.8244 11.1756 26.25 8 26.25V28.25C10.0711 28.25 11.75 29.9289 11.75 32H13.75ZM13.75 38V32H11.75V38H13.75ZM12 39.75C12.9665 39.75 13.75 38.9665 13.75 38H11.75C11.75 37.8619 11.8619 37.75 12 37.75V39.75ZM10.25 38C10.25 38.9665 11.0335 39.75 12 39.75V37.75C12.1381 37.75 12.25 37.8619 12.25 38H10.25ZM10.25 32V38H12.25V32H10.25ZM8 29.75C9.24264 29.75 10.25 30.7574 10.25 32H12.25C12.25 29.6528 10.3472 27.75 8 27.75V29.75ZM2 29.75H8V27.75H2V29.75ZM0.25 28C0.25 28.9665 1.0335 29.75 2 29.75V27.75C2.13807 27.75 2.25 27.8619 2.25 28H0.25Z" fill="#B7A37D"/>
</svg>
