<svg width="36" height="23" viewBox="0 0 36 23" fill="none" xmlns="http://www.w3.org/2000/svg">
<path fill-rule="evenodd" clip-rule="evenodd" d="M22.8857 2.89568C24.1429 0.965218 26.1714 0 28.9714 0C31.0286 0 32.7143 0.59292 34.0286 1.77878C35.3429 2.96463 36 4.49519 36 6.3705C36 8.35612 35.3714 9.91426 34.1143 11.045C32.8571 12.1757 31.2286 12.741 29.2286 12.741C27.1714 12.741 25.5143 12.0791 24.2571 10.7554C24.0857 11.2518 24 11.7758 24 12.3273C24 12.9341 24.0857 13.5683 24.2571 14.2302C24.4857 15.6643 25.2143 17.0707 26.4429 18.4496C27.6714 19.8285 29.1143 20.8489 30.7714 21.5108L30 23C27.0286 21.6763 24.7857 19.8561 23.2714 17.5396C21.7571 15.223 21 12.6307 21 9.76259C21 8.43884 21.1714 7.17027 21.5143 5.95683C21.8571 4.7434 22.3143 3.72303 22.8857 2.89568ZM1.88572 2.89568C3.14286 0.965218 5.17141 0 7.97143 0C10.0286 0 11.7143 0.59292 13.0286 1.77878C14.3429 2.96463 15 4.49519 15 6.3705C15 8.35612 14.3714 9.91426 13.1143 11.045C11.8571 12.1757 10.2286 12.741 8.22857 12.741C6.17142 12.741 4.51429 12.0791 3.25714 10.7554C3.08571 11.2518 3 11.7758 3 12.3273C3 12.9341 3.08571 13.5683 3.25714 14.2302C3.48571 15.6643 4.21428 17.0707 5.44286 18.4496C6.67143 19.8285 8.11428 20.8489 9.77143 21.5108L9 23C6.02856 21.6763 3.78572 19.8561 2.27143 17.5396C0.757133 15.223 0 12.6307 0 9.76259C0 8.43884 0.171429 7.17027 0.514286 5.95683C0.857143 4.7434 1.31428 3.72303 1.88572 2.89568Z" fill="#E2E2E2"/>
</svg>
