<svg width="36" height="23" viewBox="0 0 36 23" fill="none" xmlns="http://www.w3.org/2000/svg">
<path fill-rule="evenodd" clip-rule="evenodd" d="M13.1143 20.1043C11.8571 22.0348 9.82859 23 7.02857 23C4.97142 23 3.28572 22.4071 1.97143 21.2212C0.657136 20.0354 0 18.5048 0 16.6295C0 14.6439 0.628565 13.0857 1.88571 11.955C3.14286 10.8243 4.77142 10.259 6.77143 10.259C8.82858 10.259 10.4857 10.9209 11.7429 12.2446C11.9143 11.7482 12 11.2242 12 10.6727C12 10.0659 11.9143 9.43166 11.7429 8.76978C11.5143 7.33572 10.7857 5.92926 9.55714 4.55036C8.32857 3.17146 6.88572 2.15108 5.22857 1.48921L6 0C8.97144 1.32375 11.2143 3.14387 12.7286 5.46043C14.2429 7.77699 15 10.3693 15 13.2374C15 14.5612 14.8286 15.8297 14.4857 17.0432C14.1429 18.2566 13.6857 19.277 13.1143 20.1043ZM34.1143 20.1043C32.8571 22.0348 30.8286 23 28.0286 23C25.9714 23 24.2857 22.4071 22.9714 21.2212C21.6571 20.0354 21 18.5048 21 16.6295C21 14.6439 21.6286 13.0857 22.8857 11.955C24.1429 10.8243 25.7714 10.259 27.7714 10.259C29.8286 10.259 31.4857 10.9209 32.7429 12.2446C32.9143 11.7482 33 11.2242 33 10.6727C33 10.0659 32.9143 9.43166 32.7429 8.76978C32.5143 7.33572 31.7857 5.92926 30.5571 4.55036C29.3286 3.17146 27.8857 2.15108 26.2286 1.48921L27 0C29.9714 1.32375 32.2143 3.14387 33.7286 5.46043C35.2429 7.77699 36 10.3693 36 13.2374C36 14.5612 35.8286 15.8297 35.4857 17.0432C35.1429 18.2566 34.6857 19.277 34.1143 20.1043Z" fill="#E2E2E2"/>
</svg>
