<svg width="114" height="114" viewBox="0 0 114 114" fill="none" xmlns="http://www.w3.org/2000/svg">
<path fill-rule="evenodd" clip-rule="evenodd" d="M13.3696 44.0618L4.54229 52.8891C2.27586 55.1555 2.27472 58.8426 4.53981 61.1083L13.3637 69.9321C15.3006 71.8691 18.9643 73.386 21.704 73.3851L94.7744 73.3946C96.3221 73.394 97.7804 72.7881 98.8809 71.6876C99.981 70.5874 100.587 69.1289 100.588 67.5814L100.592 46.4242C100.593 44.8767 99.9873 43.4187 98.8873 42.3187C97.7874 41.2188 96.3297 40.6133 94.7819 40.6139L21.7115 40.605C18.9719 40.6053 15.3075 42.1239 13.3696 44.0618ZM15.6972 58.1781C15.4029 58.4724 14.9955 58.6418 14.5791 58.641C14.1636 58.6411 13.7565 58.4727 13.4624 58.1786C13.1683 57.8845 12.9993 57.4769 12.9994 57.0613C12.9995 56.6458 13.1687 56.2381 13.4629 55.9439C13.7572 55.6496 14.1649 55.4804 14.5798 55.4809C14.9959 55.4803 15.4033 55.6489 15.6977 55.9433C15.9918 56.2375 16.1605 56.6442 16.1595 57.0606C16.16 57.4767 15.9914 57.8839 15.6972 58.1781Z" fill="#E5E5EA"/>
<path d="M35.784 60.336V62H28.824V60.336H31.272V53.072L29.336 54.24L28.52 52.736L31.864 50.72H33.336V60.336H35.784ZM42.0018 54.784C42.7058 54.784 43.3244 54.9387 43.8578 55.248C44.4018 55.5467 44.8177 55.968 45.1058 56.512C45.4044 57.056 45.5538 57.68 45.5538 58.384C45.5538 59.1307 45.3831 59.7867 45.0417 60.352C44.7004 60.9173 44.2151 61.3547 43.5858 61.664C42.9671 61.9733 42.2364 62.128 41.3938 62.128C40.6898 62.128 39.9911 62.0107 39.2978 61.776C38.6151 61.5307 38.0498 61.2107 37.6018 60.816L38.2898 59.312C39.3138 60.0907 40.3591 60.48 41.4258 60.48C42.1298 60.48 42.6684 60.304 43.0418 59.952C43.4151 59.6 43.6018 59.0987 43.6018 58.448C43.6018 57.8187 43.4098 57.3227 43.0258 56.96C42.6524 56.5867 42.1404 56.4 41.4898 56.4C41.0524 56.4 40.6364 56.4853 40.2418 56.656C39.8578 56.816 39.5111 57.0507 39.2018 57.36H37.9698V50.72H45.0417V52.32H39.9858V55.36C40.5298 54.976 41.2018 54.784 42.0018 54.784ZM49.7875 61.68L56.3955 50.272L57.7235 51.04L51.1155 62.448L49.7875 61.68ZM49.7235 57.456C48.8275 57.456 48.1288 57.1627 47.6275 56.576C47.1262 55.9893 46.8755 55.1307 46.8755 54C46.8755 52.88 47.1262 52.0267 47.6275 51.44C48.1288 50.8533 48.8275 50.56 49.7235 50.56C50.6195 50.56 51.3182 50.8533 51.8195 51.44C52.3315 52.0267 52.5875 52.88 52.5875 54C52.5875 55.1307 52.3315 55.9893 51.8195 56.576C51.3182 57.1627 50.6195 57.456 49.7235 57.456ZM49.7235 56.16C50.1288 56.16 50.4222 55.9947 50.6035 55.664C50.7955 55.3227 50.8915 54.768 50.8915 54C50.8915 53.2533 50.7955 52.7093 50.6035 52.368C50.4115 52.0267 50.1182 51.856 49.7235 51.856C49.3288 51.856 49.0355 52.0267 48.8435 52.368C48.6622 52.6987 48.5715 53.2427 48.5715 54C48.5715 54.768 48.6622 55.3227 48.8435 55.664C49.0355 55.9947 49.3288 56.16 49.7235 56.16ZM57.7715 62.112C56.8755 62.112 56.1768 61.8187 55.6755 61.232C55.1742 60.6453 54.9235 59.7813 54.9235 58.64C54.9235 57.52 55.1742 56.672 55.6755 56.096C56.1875 55.5093 56.8862 55.216 57.7715 55.216C58.6675 55.216 59.3662 55.5093 59.8675 56.096C60.3688 56.6827 60.6195 57.536 60.6195 58.656C60.6195 59.7867 60.3688 60.6453 59.8675 61.232C59.3662 61.8187 58.6675 62.112 57.7715 62.112ZM57.7715 60.816C58.1662 60.816 58.4595 60.6507 58.6515 60.32C58.8435 59.9787 58.9395 59.424 58.9395 58.656C58.9395 57.9093 58.8435 57.3653 58.6515 57.024C58.4595 56.6827 58.1662 56.512 57.7715 56.512C57.3768 56.512 57.0835 56.6827 56.8915 57.024C56.6995 57.3653 56.6035 57.9093 56.6035 58.656C56.6035 59.424 56.6995 59.9787 56.8915 60.32C57.0835 60.6507 57.3768 60.816 57.7715 60.816ZM70.0575 62.096C69.2575 62.096 68.5615 61.92 67.9695 61.568C67.3855 61.216 66.9335 60.716 66.6135 60.068C66.2935 59.42 66.1335 58.656 66.1335 57.776C66.1335 56.888 66.2895 56.12 66.6015 55.472C66.9215 54.816 67.3775 54.316 67.9695 53.972C68.5615 53.62 69.2575 53.444 70.0575 53.444C70.8655 53.444 71.5655 53.62 72.1575 53.972C72.7495 54.316 73.2015 54.816 73.5135 55.472C73.8335 56.12 73.9935 56.884 73.9935 57.764C73.9935 58.644 73.8335 59.412 73.5135 60.068C73.2015 60.716 72.7495 61.216 72.1575 61.568C71.5655 61.92 70.8655 62.096 70.0575 62.096ZM70.0575 61.088C70.9055 61.088 71.5655 60.8 72.0375 60.224C72.5095 59.648 72.7455 58.828 72.7455 57.764C72.7455 56.7 72.5095 55.884 72.0375 55.316C71.5735 54.74 70.9135 54.452 70.0575 54.452C69.2175 54.452 68.5615 54.74 68.0895 55.316C67.6255 55.884 67.3935 56.7 67.3935 57.764C67.3935 58.828 67.6255 59.648 68.0895 60.224C68.5615 60.8 69.2175 61.088 70.0575 61.088ZM75.6793 53.54H81.0553V54.548H76.9033V57.2H80.8153V58.208H76.9033V62H75.6793V53.54ZM82.4059 53.54H87.7819V54.548H83.6299V57.2H87.5419V58.208H83.6299V62H82.4059V53.54Z" fill="#333333"/>
</svg>
