<svg width="38" height="38" viewBox="0 0 38 38" fill="none" xmlns="http://www.w3.org/2000/svg">
<path d="M36.6861 14.7879L32.4741 18.9999C28.7384 22.6352 22.7751 22.5944 19.0895 18.9083C15.4039 15.2223 15.3638 9.25904 18.9995 5.52377L23.2099 1.31177" stroke="#B7A37D" stroke-width="2.11765" stroke-linecap="round" stroke-linejoin="round"/>
<path d="M14.7867 36.6882L19.0003 32.4762C22.7217 28.7545 22.7213 22.7206 18.9995 18.9993C15.2777 15.2779 9.24389 15.2783 5.52255 19.0001L1.31055 23.2121" stroke="#B7A37D" stroke-width="2.11765" stroke-linecap="round" stroke-linejoin="round"/>
<path d="M35.8453 15.6313L22.3691 2.15356" stroke="#B7A37D" stroke-width="2.11765" stroke-linecap="round" stroke-linejoin="round"/>
<path d="M32.4742 19.0001L18.998 5.52393" stroke="#B7A37D" stroke-width="2.11765" stroke-linecap="round" stroke-linejoin="round"/>
<path d="M23.2098 16.4732L16.5312 9.79468" stroke="#B7A37D" stroke-width="2.11765" stroke-linecap="round" stroke-linejoin="round"/>
<path d="M1.31055 23.2121L5.52255 19.0001C9.24389 15.2783 15.2777 15.2779 18.9995 18.9993C22.7213 22.7206 22.7217 28.7545 19.0003 32.4762L14.7867 36.6882" stroke="#B7A37D" stroke-width="2.11765" stroke-linecap="round" stroke-linejoin="round"/>
<path d="M2.1543 22.3687L15.6305 35.8464" stroke="#B7A37D" stroke-width="2.11765" stroke-linecap="round" stroke-linejoin="round"/>
<path d="M5.52148 19L18.9977 32.4762" stroke="#B7A37D" stroke-width="2.11765" stroke-linecap="round" stroke-linejoin="round"/>
<path d="M14.7871 21.5269L21.4672 28.2054" stroke="#B7A37D" stroke-width="2.11765" stroke-linecap="round" stroke-linejoin="round"/>
</svg>
