<svg width="22" height="21" viewBox="0 0 22 21" fill="none" xmlns="http://www.w3.org/2000/svg">
<path fill-rule="evenodd" clip-rule="evenodd" d="M7.61937 20C8.14536 20 8.57175 19.5736 8.57175 19.0476C8.57175 18.5216 8.14536 18.0952 7.61937 18.0952C7.09339 18.0952 6.66699 18.5216 6.66699 19.0476C6.66699 19.5736 7.09339 20 7.61937 20Z" stroke="#A38854" stroke-width="2" stroke-linecap="round" stroke-linejoin="round"/>
<path fill-rule="evenodd" clip-rule="evenodd" d="M18.095 20C18.6209 20 19.0473 19.5736 19.0473 19.0476C19.0473 18.5216 18.6209 18.0952 18.095 18.0952C17.569 18.0952 17.1426 18.5216 17.1426 19.0476C17.1426 19.5736 17.569 20 18.095 20Z" stroke="#A38854" stroke-width="2" stroke-linecap="round" stroke-linejoin="round"/>
<path d="M0 0H3.80952L6.3619 12.7524C6.54165 13.6574 7.34417 14.3034 8.26667 14.2857H17.5238C18.4463 14.3034 19.2488 13.6574 19.4286 12.7524L20.9524 4.7619H4.7619" stroke="#A38854" stroke-width="2" stroke-linecap="round" stroke-linejoin="round"/>
</svg>
